<?xml version="1.0" encoding="utf-8"?>
<!-- Generator: Adobe Illustrator 18.1.1, SVG Export Plug-In . SVG Version: 6.00 Build 0)  -->
<svg version="1.1" id="Layer_1" xmlns="http://www.w3.org/2000/svg" xmlns:xlink="http://www.w3.org/1999/xlink" x="0px" y="0px"
	 viewBox="0 0 140 60" enable-background="new 0 0 140 60" xml:space="preserve">
<g>
	<path fill="#FFFFFF" d="M13,19.6v4h-11V9h4.9v10.6H13z"/>
	<path fill="#FFFFFF" d="M29.7,16.3c0,4.4-3.4,7.6-8.1,7.6s-8.1-3.2-8.1-7.6c0-4.4,3.4-7.5,8.1-7.5S29.7,12,29.7,16.3z M18.5,16.3
		c0,2,1.5,3.5,3.1,3.5s3-1.5,3-3.5s-1.3-3.5-3-3.5C20,12.9,18.5,14.3,18.5,16.3z"/>
	<path fill="#FFFFFF" d="M35.3,23.7L29.7,9h5.2l3,9.6L41,9h5l-5.6,14.7H35.3z"/>
	<path fill="#FFFFFF" d="M51.7,12.7v1.8h6.9v3.7h-6.9V20h7.8v3.7H46.9V9h12.4v3.7H51.7z"/>
	<path fill="#FFFFFF" d="M75,15.9V22c-1.6,1.1-4.3,1.9-6.4,1.9c-4.6,0-8-3.2-8-7.5c0-4.3,3.5-7.5,8.3-7.5c2.3,0,4.8,0.9,6.3,2.3
		l-2.7,3.3c-1-0.9-2.4-1.6-3.6-1.6c-1.9,0-3.3,1.5-3.3,3.5c0,2,1.4,3.5,3.3,3.5c0.5,0,1.2-0.2,1.9-0.5v-3.4H75z"/>
	<path fill="#FFFFFF" d="M83.5,19.8h-1.8v3.8h-4.9V9h7.1c4,0,6.3,1.9,6.3,5.3c0,2.1-0.8,3.7-2.3,4.7l2.9,4.8h-5.5L83.5,19.8z
		 M83.9,16.2c1,0,1.7-0.6,1.7-1.8c0-1.1-0.6-1.7-1.7-1.7h-2.2v3.5H83.9z"/>
	<path fill="#FFFFFF" d="M107.4,16.3c0,4.4-3.4,7.6-8.1,7.6c-4.7,0-8.1-3.2-8.1-7.6c0-4.4,3.4-7.5,8.1-7.5
		C104,8.8,107.4,12,107.4,16.3z M96.3,16.3c0,2,1.5,3.5,3.1,3.5s3-1.5,3-3.5s-1.3-3.5-3-3.5C97.7,12.9,96.3,14.3,96.3,16.3z"/>
	<path fill="#FFFFFF" d="M113,23.7L107.4,9h5.2l3,9.6l3-9.6h5L118,23.7H113z"/>
	<path fill="#FFFFFF" d="M129.4,12.7v1.8h6.9v3.7h-6.9V20h7.8v3.7h-12.6V9H137v3.7H129.4z"/>
</g>
<g>
	<path fill="#FFFFFF" d="M13,26.7c8.1,0,13.3,4.8,13.3,12.2S21,51.2,12.7,51.2H2.1V26.7H13z M10.2,44.9h3c2.9,0,4.8-2.3,4.8-5.9
		c0-3.6-2.1-6-5.2-6h-2.7V44.9z"/>
	<path fill="#FFFFFF" d="M36.7,32.8v3h11.5V42H36.7v3h12.9v6.2H28.6V26.7h20.7v6.2H36.7z"/>
	<path fill="#FFFFFF" d="M74.1,29.2l-2.9,6.2c-2.5-1.4-6.3-2.9-8.4-2.9c-0.9,0-1.5,0.3-1.5,1c0,3.1,12.7,1.2,12.7,10
		c0,5.5-4.8,7.9-10.3,7.9c-4.3,0-9-1.4-12.3-3.9l3-6.1c2.5,2.1,6.9,3.8,9.3,3.8c1.2,0,2-0.4,2-1.3c0-3.2-12.7-1.1-12.7-9.7
		c0-4.9,4.1-8,10.5-8C67.3,26.3,71.3,27.5,74.1,29.2z"/>
	<path fill="#FFFFFF" d="M76,51.2V26.7h8.1v24.5H76z"/>
	<path fill="#FFFFFF" d="M110.4,38.3v10.1c-2.7,1.8-7.2,3.1-10.7,3.1c-7.7,0-13.3-5.3-13.3-12.6c0-7.2,5.8-12.5,13.8-12.5
		c3.8,0,8,1.5,10.6,3.8l-4.6,5.6c-1.6-1.6-4-2.6-6.1-2.6c-3.1,0-5.5,2.4-5.5,5.8c0,3.4,2.3,5.8,5.5,5.8c0.8,0,2-0.3,3.2-0.8v-5.7
		H110.4z"/>
	<path fill="#FFFFFF" d="M130.5,51.2l-9.7-12.5v12.5h-7.4V26.7h6.8l9.7,12.6V26.7h7.3v24.5H130.5z"/>
</g>
</svg>
