<?xml version="1.0" encoding="utf-8"?>
<!-- Generator: Adobe Illustrator 18.1.1, SVG Export Plug-In . SVG Version: 6.00 Build 0)  -->
<svg version="1.1" id="Layer_1" xmlns="http://www.w3.org/2000/svg" xmlns:xlink="http://www.w3.org/1999/xlink" x="0px" y="0px"
	 viewBox="0 298.2 612 195.6" enable-background="new 0 298.2 612 195.6" xml:space="preserve">
<g>
	<path fill="#3A3A3A" d="M56.8,350.5V368H8.7v-63.8h21.4v46.3H56.8z"/>
	<path fill="#3A3A3A" d="M129.8,336.1c0,19.2-14.9,33.2-35.4,33.2S59,355.3,59,336.1s14.9-32.8,35.4-32.8S129.8,317.3,129.8,336.1z
		 M80.9,336.1c0,8.7,6.6,15.3,13.6,15.3s13.1-6.6,13.1-15.3s-5.7-15.3-13.1-15.3C87.4,321.2,80.9,327.4,80.9,336.1z"/>
	<path fill="#3A3A3A" d="M154.3,368.5l-24.5-64.3h22.7l13.1,42l13.6-42h21.9l-24.5,64.3H154.3z"/>
	<path fill="#3A3A3A" d="M226,320.4v7.9h30.2v16.2H226v7.9h34.1v16.2H205v-64.3h54.2v16.2H226z"/>
	<path fill="#3A3A3A" d="M327.9,334.4V361c-7,4.8-18.8,8.3-28,8.3c-20.1,0-35-14-35-32.8s15.3-32.8,36.3-32.8
		c10.1,0,21,3.9,27.5,10.1l-11.8,14.4c-4.4-3.9-10.5-7-15.7-7c-8.3,0-14.4,6.6-14.4,15.3s6.1,15.3,14.4,15.3c2.2,0,5.2-0.9,8.3-2.2
		v-14.9h18.4V334.4z"/>
	<path fill="#3A3A3A" d="M365,351.4h-7.9V368h-21.4v-63.8h31c17.5,0,27.5,8.3,27.5,23.2c0,9.2-3.5,16.2-10.1,20.5l12.7,21h-24
		L365,351.4z M366.8,335.7c4.4,0,7.4-2.6,7.4-7.9c0-4.8-2.6-7.4-7.4-7.4h-9.6v15.3H366.8z"/>
	<path fill="#3A3A3A" d="M469.5,336.1c0,19.2-14.9,33.2-35.4,33.2c-20.5,0-35.4-14-35.4-33.2s14.9-32.8,35.4-32.8
		C454.6,303.3,469.5,317.3,469.5,336.1z M421,336.1c0,8.7,6.6,15.3,13.6,15.3c7,0,13.1-6.6,13.1-15.3s-5.7-15.3-13.1-15.3
		C427.1,321.2,421,327.4,421,336.1z"/>
	<path fill="#3A3A3A" d="M494,368.5l-24.5-64.3h22.7l13.1,42l13.1-42h21.9l-24.5,64.3H494z"/>
	<path fill="#3A3A3A" d="M565.7,320.4v7.9h30.2v16.2h-30.2v7.9h34.1v16.2h-55.1v-64.3h54.2v16.2H565.7z"/>
</g>
<g>
	<path fill="#3A3A3A" d="M56.8,381.6c35.4,0,58.1,21,58.1,53.3s-23.2,53.8-59.5,53.8H9.2V381.6H56.8z M44.6,461.1h13.1
		c12.7,0,21-10.1,21-25.8c0-15.7-9.2-26.2-22.7-26.2H44.2v52H44.6z"/>
	<path fill="#3A3A3A" d="M160.4,408.2v13.1h50.3v27.1h-50.3v13.1h56.4v27.1H125V381.6h90.5v27.1h-55.1V408.2z"/>
	<path fill="#3A3A3A" d="M323.9,392.5l-12.7,27.1c-10.9-6.1-27.5-12.7-36.7-12.7c-3.9,0-6.6,1.3-6.6,4.4c0,13.6,55.5,5.2,55.5,43.7
		c0,24-21,34.5-45,34.5c-18.8,0-39.3-6.1-53.8-17l13.1-26.7c10.9,9.2,30.2,16.6,40.7,16.6c5.2,0,8.7-1.7,8.7-5.7
		c0-14-55.5-4.8-55.5-42.4c0-21.4,17.9-35,45.9-35C294.2,379.8,311.7,385.1,323.9,392.5z"/>
	<path fill="#3A3A3A" d="M332.2,488.7V381.6h35.4v107.1H332.2z"/>
	<path fill="#3A3A3A" d="M482.6,432.3v44.2c-11.8,7.9-31.5,13.6-46.8,13.6c-33.7,0-58.1-23.2-58.1-55.1c0-31.5,25.4-54.6,60.3-54.6
		c16.6,0,35,6.6,46.3,16.6l-20.1,24.5c-7-7-17.5-11.4-26.7-11.4c-13.6,0-24,10.5-24,25.4c0,14.9,10.1,25.4,24,25.4
		c3.5,0,8.7-1.3,14-3.5v-24.9H482.6z"/>
	<path fill="#3A3A3A" d="M570.5,488.7L528.1,434v54.6h-32.3V381.6h29.7l42.4,55.1v-55.1h31.9v107.1H570.5z"/>
</g>
</svg>
